<svg width="67" height="67" viewBox="0 0 67 67" fill="none" xmlns="http://www.w3.org/2000/svg">
<path fill-rule="evenodd" clip-rule="evenodd" d="M19.46 0.198666C22.9919 0.0367832 24.1177 0 33.111 0C42.106 0 43.23 0.0386194 46.7599 0.198666C50.2863 0.358712 52.6943 0.919763 54.8005 1.73833C57.0096 2.57004 59.0107 3.8732 60.6647 5.55714C62.3489 7.21097 63.6523 9.21226 64.4836 11.4215C65.3021 13.5277 65.8614 15.9356 66.0233 19.46C66.1852 22.9919 66.222 24.1177 66.222 33.111C66.222 42.1042 66.1834 43.23 66.0233 46.762C65.8632 50.2863 65.3021 52.6943 64.4836 54.8005C63.6375 56.9768 62.5042 58.8253 60.6647 60.6647C59.011 62.3489 57.0096 63.6523 54.8005 64.4836C52.6943 65.3021 50.2863 65.8614 46.762 66.0233C43.23 66.1852 42.1042 66.222 33.111 66.222C24.1177 66.222 22.9919 66.1834 19.46 66.0233C15.9356 65.8632 13.5277 65.3021 11.4215 64.4836C9.24531 63.6375 7.39663 62.5042 5.55714 60.6647C3.8729 59.011 2.56965 57.0096 1.73833 54.8005C0.919763 52.6943 0.360548 50.2863 0.198666 46.762C0.0367832 43.23 0 42.106 0 33.111C0 24.1158 0.0386194 22.9919 0.198666 19.4619C0.358712 15.9356 0.919763 13.5277 1.73833 11.4215C2.57004 9.21241 3.8732 7.21121 5.55714 5.55714C7.21094 3.8729 9.21223 2.56965 11.4215 1.73833C13.5277 0.919763 15.9356 0.360548 19.46 0.198666ZM46.4914 6.15864C43 6.00043 41.9516 5.96549 33.111 5.96549C24.2704 5.96549 23.2218 6.00043 19.7305 6.15864C16.5022 6.30581 14.7491 6.84476 13.5828 7.29914C12.0377 7.89881 10.934 8.6162 9.77509 9.77509C8.61807 10.934 7.89881 12.0377 7.29914 13.5828C6.84476 14.7491 6.30581 16.5022 6.15864 19.7305C6.00043 23.2218 5.96549 24.2704 5.96549 33.111C5.96549 41.9516 6.00043 43 6.15864 46.4914C6.30581 49.7198 6.84476 51.4728 7.29914 52.6392C7.82957 54.0775 8.67565 55.3784 9.77509 56.447C10.8434 57.5463 12.1445 58.3924 13.5828 58.9228C14.7491 59.3773 16.5022 59.9161 19.7305 60.0633C23.2218 60.2217 24.2685 60.2566 33.111 60.2566C41.9534 60.2566 43 60.2217 46.4914 60.0633C49.7198 59.9161 51.4728 59.3773 52.6392 58.9228C54.1843 58.3232 55.2881 57.6059 56.447 56.447C57.5463 55.3787 58.3924 54.0775 58.9228 52.6392C59.3773 51.4728 59.9161 49.7198 60.0633 46.4914C60.2217 43 60.2566 41.9516 60.2566 33.111C60.2566 24.2704 60.2217 23.2218 60.0633 19.7305C59.9161 16.5022 59.3773 14.7491 58.9228 13.5828C58.3232 12.0377 57.6059 10.934 56.447 9.77509C55.2881 8.61807 54.1843 7.89881 52.6392 7.29914C51.4728 6.84476 49.7198 6.30581 46.4914 6.15864ZM28.8833 43.3179C30.2237 43.8733 31.6601 44.1589 33.111 44.1589C36.0413 44.1589 38.8512 42.9949 40.9231 40.9231C42.9952 38.8512 44.1592 36.041 44.1592 33.111C44.1592 30.181 42.9952 27.3707 40.9231 25.2988C38.8512 23.2269 36.0413 22.0629 33.111 22.0629C31.6601 22.0629 30.2237 22.3487 28.8833 22.9039C27.5426 23.4591 26.3248 24.2729 25.2989 25.2988C24.273 26.3247 23.4592 27.5426 22.904 28.883C22.3488 30.2234 22.0631 31.6601 22.0631 33.111C22.0631 34.5618 22.3488 35.9986 22.904 37.339C23.4592 38.6794 24.273 39.8972 25.2989 40.9231C26.3248 41.9489 27.5426 42.7628 28.8833 43.3179ZM21.0768 21.0767C24.2685 17.885 28.5974 16.0919 33.111 16.0919C37.6249 16.0919 41.9537 17.885 45.1453 21.0767C48.3369 24.2684 50.13 28.5974 50.13 33.111C50.13 37.6246 48.3369 41.9534 45.1453 45.1453C41.9537 48.3369 37.6249 50.13 33.111 50.13C28.5974 50.13 24.2685 48.3369 21.0768 45.1453C17.8851 41.9534 16.092 37.6246 16.092 33.111C16.092 28.5974 17.8851 24.2684 21.0768 21.0767ZM53.9038 18.6276C54.6581 17.8731 55.0819 16.8498 55.0819 15.7829C55.0819 14.7159 54.6581 13.6927 53.9038 12.9382C53.1492 12.1838 52.126 11.7599 51.0589 11.7599C49.9922 11.7599 48.9687 12.1838 48.2144 12.9382C47.4598 13.6927 47.036 14.7159 47.036 15.7829C47.036 16.8498 47.4598 17.8731 48.2144 18.6276C48.9687 19.382 49.9922 19.8059 51.0589 19.8059C52.126 19.8059 53.1492 19.382 53.9038 18.6276Z" fill="black"/>
</svg>
