<svg width="84" height="84" viewBox="0 0 84 84" fill="none" xmlns="http://www.w3.org/2000/svg">
<path d="M52.5339 29.1277C49.8762 29.1186 47.2427 29.6336 44.7843 30.6433C42.3258 31.653 40.0906 33.1375 38.2064 35.012C36.3223 36.8865 34.8263 39.114 33.804 41.5673C32.7816 44.0205 32.2531 46.6513 32.2485 49.309V69.6984C32.2485 70.5261 32.5773 71.3199 33.1626 71.9052C33.7479 72.4904 34.5417 72.8192 35.3694 72.8192H42.6513C43.479 72.8192 44.2728 72.4904 44.858 71.9052C45.4433 71.3199 45.7721 70.5261 45.7721 69.6984V49.309C45.7714 48.3638 45.97 47.429 46.3548 46.5656C46.7396 45.7022 47.302 44.9296 48.0054 44.2982C48.7089 43.6667 49.5375 43.1906 50.4372 42.9009C51.337 42.6111 52.2877 42.5143 53.2274 42.6166C54.9127 42.8288 56.4614 43.6522 57.58 44.9305C58.6985 46.2089 59.309 47.8532 59.2957 49.5517V69.6984C59.2957 70.5261 59.6245 71.3199 60.2097 71.9052C60.795 72.4904 61.5888 72.8192 62.4165 72.8192H69.6984C70.5261 72.8192 71.3199 72.4904 71.9052 71.9052C72.4904 71.3199 72.8192 70.5261 72.8192 69.6984V49.309C72.8147 46.6513 72.2861 44.0205 71.2638 41.5673C70.2415 39.114 68.7455 36.8865 66.8613 35.012C64.9772 33.1375 62.742 31.653 60.2835 30.6433C57.825 29.6336 55.1916 29.1186 52.5339 29.1277Z" fill="#231F20"/>
<path d="M22.8861 32.2485H13.5236C11.8 32.2485 10.4028 33.6458 10.4028 35.3693V69.6984C10.4028 71.422 11.8 72.8192 13.5236 72.8192H22.8861C24.6096 72.8192 26.0069 71.422 26.0069 69.6984V35.3693C26.0069 33.6458 24.6096 32.2485 22.8861 32.2485Z" fill="#231F20"/>
<path d="M18.2048 26.0069C22.5138 26.0069 26.0069 22.5138 26.0069 18.2048C26.0069 13.8958 22.5138 10.4027 18.2048 10.4027C13.8958 10.4027 10.4027 13.8958 10.4027 18.2048C10.4027 22.5138 13.8958 26.0069 18.2048 26.0069Z" fill="#231F20"/>
</svg>
