<svg width="56" height="64" viewBox="0 0 56 64" fill="none" xmlns="http://www.w3.org/2000/svg">
<path d="M29.0026 0.282201C32.472 0.229233 35.915 0.255717 39.3579 0.229233C39.5698 4.28132 41.0264 8.41285 43.9927 11.2731C46.9589 14.2129 51.1434 15.5636 55.222 16.0138V26.687C51.4082 26.5545 47.568 25.76 44.0986 24.118C42.589 23.4294 41.1853 22.5554 39.8082 21.655C39.7817 29.3883 39.8346 37.1217 39.7552 44.8286C39.5433 48.5364 38.325 52.2177 36.1798 55.2634C32.7104 60.3484 26.6985 63.6589 20.5277 63.7649C16.7404 63.9767 12.9532 62.9438 9.72209 61.037C4.37228 57.8854 0.611525 52.1118 0.0553565 45.9145C0.00238806 44.5903 -0.0240961 43.2661 0.0288723 41.9683C0.505588 36.9363 2.9951 32.1162 6.8618 28.8322C11.2582 25.0185 17.4025 23.191 23.1496 24.2769C23.2026 28.1966 23.0436 32.1162 23.0436 36.0359C20.4217 35.1884 17.3495 35.4267 15.0454 37.0158C13.3769 38.1017 12.1057 39.7702 11.4436 41.6505C10.8874 43.0012 11.0463 44.4843 11.0728 45.9145C11.7084 50.2579 15.8929 53.9127 20.3423 53.5155C23.3085 53.489 26.1423 51.7675 27.6784 49.2515C28.1816 48.3775 28.7378 47.4771 28.7642 46.4442C29.0291 41.7035 28.9231 36.9893 28.9496 32.2486C28.9761 21.5755 28.9231 10.9289 29.0026 0.282201Z" fill="black"/>
</svg>
