<svg width="187" height="172" viewBox="0 0 187 172" fill="none" xmlns="http://www.w3.org/2000/svg">
<path id="Vector 4" d="M89.3422 57.7612C116.441 72.8158 146.927 83.6889 176.611 94.1659C177.561 94.501 176.611 95.7747 176.611 104.118C176.611 107.387 180.235 109.592 181.545 112.538C182.797 115.357 183.497 118.196 185.032 120.959C188.145 126.562 185.331 137.993 183.926 143.499C181.915 151.383 181.383 163.602 172.784 167.571C166.862 170.304 161.072 171.859 154.326 170.633C149.919 169.831 146.279 169.361 141.738 169.187C137.548 169.026 133.289 165.514 129.149 164.594C120.565 162.686 115.37 160.296 115.37 151.58C115.37 147.341 122.274 112.105 114.604 116.366C108.337 119.848 109.897 125.235 107.374 130.911C105.026 136.194 104.382 139.075 100.4 143.499C92.4527 152.329 77.38 143.722 69.4387 137.035C66.0403 134.173 52.8824 134.513 52.5972 129.38C52.2978 123.991 54.598 117.293 56.8501 112.538C61.517 102.686 62.2656 90.7456 67.9076 81.5773C71.0478 76.4745 61.8358 70.4675 58.3812 73.9221C55.0657 77.2375 49.3058 111.13 39.5834 103.352C35.0531 99.7279 20.0305 90.3197 24.273 82.6831C27.5016 76.8715 30.2672 70.4087 31.2477 63.5451C32.109 57.5163 36.7449 48.7902 33.4592 42.8761C29.5812 35.8957 17.5584 61.2349 15.8523 65.9267C12.3628 75.5229 5.97041 57.4149 4.79479 54.0186C0.713763 42.229 -1.2754 26.6174 0.882134 14.2116C1.58107 10.1927 2.46264 3.51756 5.13502 0.177088C6.03257 -0.944852 11.7717 3.60897 12.7902 4.1748C22.1394 9.36877 30.4296 16.7452 39.1581 22.8875C55.9931 34.7343 71.5617 47.8832 89.3422 57.7612Z" fill="#086155"/>
</svg>
