<svg width="285" height="204" viewBox="0 0 285 204" fill="none" xmlns="http://www.w3.org/2000/svg">
<path id="Vector 6" d="M170.817 200.811C195.027 204.529 219.285 206.748 240.792 193.858C244.716 191.505 245.297 193.289 245.297 193.289C251.615 195.23 255.748 191.872 261.196 188.606C276 179.733 280.133 171.367 283.338 154.4C286.818 135.976 280.247 119.976 270.901 104.382C260.075 86.321 248.742 68.5118 234.698 52.7133C230.794 48.3204 197.767 15.8201 192.626 24.7221C188.675 31.5625 183.373 39.4775 182.778 47.5853C182.44 52.1844 182.617 57.0622 182.515 61.6994C182.476 63.4389 184.741 70.882 181.315 65.5196L180.868 64.8201C171.583 50.287 161.969 35.2417 155.375 19.3301C154.161 16.4011 150.984 0.0544568 149.239 1.00741C139.372 6.39743 130.531 10.2436 120.007 14.1671L119.612 14.3142C113.703 16.5176 107.871 18.6925 101.656 19.9326C98.0304 20.6559 99.791 22.3663 100.014 25.2781C100.758 35.0097 101.705 44.6909 103.949 54.3208C109.212 76.9048 96.4492 55.4243 90.0235 47.742C85.6113 42.4668 82.2275 36.9987 78.6829 31.0849C78.0058 29.9553 73.1983 20.8039 72.1718 22.0004C57.9587 38.5668 28.9023 51.1007 6.50815 46.8194C-1.84344 45.2228 0.601676 47.4997 4.10926 54.9447C10.2753 68.0324 16.886 83.3515 19.2016 97.7503C19.997 102.696 20.453 128.247 26.8862 128.035C39.275 127.628 52.1441 122.902 64.3834 123.49C72.9339 123.901 82.0596 122.761 90.3889 120.794C94.4524 119.834 95.1033 120.526 91.1577 123.047C81.577 129.168 71.1763 136.482 60.5405 140.525C58.5578 141.279 43.3716 146.484 43.7858 147.175C45.4982 150.033 50.6005 151.383 52.8784 153.937C63.4495 165.793 80.8656 174.983 95.0653 181.957C116.263 192.368 135.094 174.265 153.013 164.477C155.861 162.921 151.986 171.377 151.526 172.346C149.722 176.151 147.275 177.589 144.822 180.725C142.299 183.952 125.622 190.755 128.934 192.865C139.393 199.527 159.251 199.035 170.817 200.811Z" fill="#128676"/>
</svg>
