<svg width="205" height="87" viewBox="0 0 205 87" fill="none" xmlns="http://www.w3.org/2000/svg">
<path id="Vector 5" d="M153.972 25.7058C169.536 25.4374 185.057 23.3695 200.609 23.3695C203.469 24.7994 203.136 26.7941 204.18 29.7171C205.539 33.5235 203.842 37.5866 203.034 41.2222C201.578 47.7744 203.721 54.0259 201.006 60.6619C198.392 67.0524 197.123 75.7604 191.485 80.1456C188.655 82.3467 186.591 82.6582 182.801 83.0549C174.135 83.9618 165.792 85.259 157.057 85.259C151.996 85.259 140.354 89.1524 137.53 84.0688C136.013 81.3381 137.133 75.7635 137.133 72.74V53.1681C137.133 51.2384 137.637 44.9213 133.959 46.556C131.991 47.4305 129.967 46.8727 128.052 47.9666C124.173 50.1835 125.231 61.868 125.231 65.5989C125.231 69.9135 125.797 74.6377 125.187 78.9113C124.788 81.7074 118.679 80.4982 116.679 80.4982H107.775C104.652 80.4982 102.211 79.1504 99.2234 78.9113C95.7476 78.6333 89.115 76.9441 87.3215 73.3571C85.1636 69.0412 89.9589 41.6189 85.5583 41.6189H85.5394C82.9239 41.6189 77.8001 41.6189 77.6237 44.7928C77.3802 49.1772 76.4452 54.9823 74.6262 59.0749C73.6415 61.2907 74.2342 70.9768 72.4663 70.9768C67.8603 70.9768 63.7294 69.1904 59.3302 68.6405C49.2244 67.3773 57.287 40.9858 53.8201 34.9186C53.2935 33.9972 50.0389 34.4234 49.0594 34.4778C46.8532 34.6004 46.0579 37.5511 45.8415 39.2826C45.4936 42.0653 44.8301 56.6946 40.7281 56.6946C36.7955 56.6946 32.0363 56.3701 28.8262 53.8734C26.9957 52.4497 24.7666 51.7141 23.0517 50.1706C21.191 48.496 22.0819 49.8499 22.0819 47.5258C22.0819 42.286 26.5027 34.7049 24.2859 29.7171C22.372 25.4107 19.383 25.9496 17.1448 28.7473C15.1696 31.2164 15.4394 37.5381 12.5604 39.0622C9.89598 40.4728 5.73809 33.9693 4.80219 32.0975C1.58383 25.6607 1.40783 18.233 0.482268 11.2913C0.341708 10.2371 -0.412889 -0.30145 0.305945 0.00662192C3.88598 1.54092 7.44372 2.34657 11.1498 4.32654C33.8484 16.4532 57.7274 19.2555 83.0016 22.3997C106.652 25.3418 130.15 26.1165 153.972 25.7058Z" fill="#0FB9A2"/>
</svg>
