<svg width="201" height="206" viewBox="0 0 201 206" fill="none" xmlns="http://www.w3.org/2000/svg">
<path id="Vector 2" d="M12.6022 69.3586C15.7178 67.5765 18.7457 65.6605 21.6809 63.9385C32.0045 57.882 40.8499 50.7653 49.81 42.8719C58.2316 35.4529 62.7492 25.7811 69.3027 17.0431C69.8196 16.3539 72.8871 11.4623 72.2084 15.0253C71.4759 18.8707 70.7074 22.9963 69.7869 26.8097C67.6732 35.5665 65.8938 45.72 61.3119 53.5263C59.9504 55.8458 57.8684 57.661 56.5497 59.9028C56.2513 60.41 63.5044 55.043 65.0651 53.6877C75.5708 44.5644 83.4645 32.2383 93.4364 22.451C104.125 11.9606 118.039 5.79598 131.534 0.0123117C132.032 -0.201054 130.37 2.42235 130.081 2.9584C128.412 6.0587 127.539 9.5364 125.965 12.6845C121.989 20.6359 118.713 28.9865 114.826 37.0201C111.103 44.7145 104.363 49.6658 99.4093 56.2706C98.2998 57.75 97.1323 60.9393 95.6157 61.9206C90.674 65.1182 106.351 57.0458 111.92 55.1406C136.977 46.5686 164.973 42.3286 191.344 39.724C191.818 39.6772 200.626 39.2866 200.626 39.724C200.626 41.0081 192.932 46.8144 191.868 47.9569C188.213 51.8829 185.339 56.4118 181.658 60.3467C172.603 70.0254 162.949 80.2133 152.439 88.3144C136.02 100.97 115.396 111.743 94.3243 113.659C93.9685 113.691 98.5276 115.011 99.0461 115.152C103.298 116.305 107.554 117.426 111.759 118.744C120.746 121.562 129.37 125.707 137.951 129.56C147.594 133.889 157.935 140.027 166.403 146.348C170.909 149.713 175.531 153.135 179.882 156.68C181.775 158.222 183.434 159.86 184.604 161.967C184.905 162.509 173.084 160.122 171.246 159.747C164.424 158.358 157.587 155.679 150.986 153.451C141.27 150.172 131.676 149.527 121.727 147.478C110.807 145.23 101.333 140.407 91.0957 136.178L90.9799 136.13C87.8139 134.823 85.2923 133.782 82.5399 131.658C81.6453 130.968 80.9498 130.009 80.0377 129.358C79.4227 128.919 82.3203 134.362 82.5399 134.685C87.3733 141.793 92.574 148.575 95.0507 156.922C97.23 164.267 97.795 172.534 97.795 180.168V180.423C97.7952 186.078 97.7955 191.287 96.7457 196.836C96.6215 197.492 95.8695 206.158 94.405 205.27C79.258 196.09 64.7009 185.553 49.8907 175.809C45.337 172.813 40.4085 170.54 35.7253 167.778C30.4884 164.69 26.5097 160.056 22.2459 155.792C16.3995 149.946 10.9222 143.915 7.1522 136.501C4.48161 131.249 0.829068 125.556 0.493225 119.511C0.0805686 112.083 0.452868 104.549 0.452868 97.1123C0.452868 92.0972 0.466573 88.1173 2.26895 83.4311C3.53037 80.1515 4.42505 75.5944 7.1522 73.14C7.71988 72.6291 8.60681 71.7896 9.56026 71.0301C10.6053 70.1976 11.7301 69.4612 12.6022 69.3586Z" fill="#086155"/>
</svg>
