<svg width="223" height="256" viewBox="0 0 223 256" fill="none" xmlns="http://www.w3.org/2000/svg">
<path id="Vector 1" d="M135.419 36.0372C116.565 20.402 96.8992 6.02724 71.8245 6.02724C67.249 6.02724 67.668 4.19837 67.668 4.19837C63.2468 -0.714035 57.9753 0.0418609 51.6239 0.0418609C34.3646 0.0418609 26.5181 5.09256 15.0466 17.998C2.58987 32.0118 0 49.1134 0 67.2942C0 88.351 0.565726 109.453 4.48903 130.224C5.57993 135.999 17.1996 180.855 26.186 175.862C33.0911 172.026 41.7081 167.963 46.3867 161.314C49.0405 157.543 51.397 153.269 53.8684 149.344C54.7955 147.871 56.6793 140.323 56.8611 146.684L56.8848 147.513C57.3781 164.753 57.8888 182.6 55.3647 199.637C54.9001 202.774 49.222 218.429 51.2082 218.508C62.4424 218.957 72.0031 220.204 83.0471 222.249L83.4611 222.326C89.662 223.473 95.7831 224.606 101.751 226.738C105.233 227.981 104.602 225.609 105.908 222.997C110.273 214.267 114.437 205.477 117.463 196.063C124.559 173.986 124.463 198.972 126.025 208.865C127.098 215.658 127.189 222.088 127.189 228.982C127.189 230.299 126.608 240.62 128.104 240.122C148.811 233.219 180.178 237.406 197.185 252.591C203.527 258.254 202.601 255.044 203.42 246.855C204.859 232.46 207.065 215.922 212.481 202.381C214.341 197.729 227.086 175.58 221.459 172.454C210.623 166.434 197.155 163.872 186.96 157.075C179.837 152.326 171.423 148.613 163.268 146.019C159.289 144.753 159.086 143.825 163.767 143.691C175.131 143.366 187.813 142.439 199.014 144.439C201.102 144.812 216.804 148.154 216.804 147.349C216.804 144.018 213.121 140.236 212.481 136.874C209.509 121.271 199.295 104.435 190.701 91.1526C177.871 71.3254 152.413 77.1715 132.011 76.3554C128.768 76.2257 136.439 70.9648 137.331 70.37C140.835 68.0339 143.674 68.0585 147.39 66.6292C151.212 65.1589 169.014 67.8976 167.258 64.3846C161.712 53.2934 144.427 43.5068 135.419 36.0372Z" fill="#0FB9A2" fill-opacity="0.65"/>
</svg>
